<?xml version="1.0" standalone="no"?><!DOCTYPE svg PUBLIC "-//W3C//DTD SVG 1.1//EN" "http://www.w3.org/Graphics/SVG/1.1/DTD/svg11.dtd"><svg t="1540967385254" class="icon" style="" viewBox="0 0 1024 1024" version="1.1" xmlns="http://www.w3.org/2000/svg" p-id="2337" xmlns:xlink="http://www.w3.org/1999/xlink" width="64" height="64"><defs><style type="text/css"></style></defs><path d="M513.207157 641.099536l-198.92497-198.92497a21.445846 21.445846 0 1 0-30.320405 30.344487l214.440396 214.422333a21.331452 21.331452 0 0 0 15.160202 6.285644 21.23512 21.23512 0 0 0 15.455218-6.701074l0.060207 0.08429 358.083009-375.145762 0.08429 0.126436 30.61542-32.120603c-0.024083-0.024083-0.042145-0.066228-0.060208-0.102353l61.610146-64.542242-0.060207-0.060207a21.283286 21.283286 0 0 0 5.990628-14.744772 21.445846 21.445846 0 0 0-21.445846-21.445845 21.325431 21.325431 0 0 0-15.455218 6.701074l-0.042145-0.060208-55.119797 57.738816a1.023524 1.023524 0 0 0-0.126436-0.168581l-29.904973 31.34995c0.042145 0.060207 0.066228 0.126435 0.102352 0.16858l-350.141663 366.795007z m434.2272-300.24184a21.445846 21.445846 0 0 0-30.320404 0.25287c-5.906338 6.00869-7.351313 14.576191-4.77444 22.05394l-0.463597 0.144497c19.519212 49.044879 30.573275 102.364478 30.573275 158.363302 0 236.873641-192.01317 428.886811-428.886811 428.886812-236.849558 0-428.886811-192.01317-428.886812-428.886812s192.037253-428.886811 428.886812-428.886811c121.22743 0 230.52779 50.44771 308.47218 131.348279l0.270933-0.270933c8.483211 7.622246 21.463908 7.435603 29.549751-0.776674a21.457887 21.457887 0 0 0-0.252871-30.326425c-0.794737-0.794737-1.842344-1.131898-2.721371-1.782136-85.422139-86.867115-203.825846-141.083802-335.318622-141.083803-260.559199 0-471.772482 211.219304-471.772482 471.772482 0 260.559199 211.219304 471.772482 471.772482 471.772483s471.772482-211.219304 471.772482-471.772483c0-60.646829-11.85482-118.427789-32.710634-171.699222-1.005462-3.305382-2.55279-6.490349-5.189871-9.109366z" p-id="2338" fill="#707070"></path></svg>